<?xml version="1.0" encoding="utf-8"?>
<!-- Generator: Adobe Illustrator 24.0.2, SVG Export Plug-In . SVG Version: 6.00 Build 0)  -->
<svg version="1.1" id="Layer_1" xmlns="http://www.w3.org/2000/svg" xmlns:xlink="http://www.w3.org/1999/xlink" x="0px" y="0px"
	 viewBox="0 0 242.3 74.1" style="enable-background:new 0 0 242.3 74.1;" xml:space="preserve">
<style type="text/css">
	.st0{fill:#136AB2;}
	.st1{fill:#116BB2;}
	.st2{fill:#1A97D5;}
	.st3{fill:#176CB3;}
	.st4{fill:#2298D5;}
	.st5{fill:#2599D5;}
	.st6{fill:#1E98D5;}
	.st7{fill:#156BB3;}
	.st8{fill:#08A041;}
	.st9{fill:#2E2826;}
	.st10{fill:#D61727;}
	.st11{fill:#1C6CB4;}
	.st12{fill:url(#SVGID_1_);}
	.st13{fill:url(#SVGID_2_);}
	.st14{fill:url(#SVGID_3_);}
	.st15{fill:url(#SVGID_4_);}
	.st16{fill:#636363;}
	.st17{fill:url(#SVGID_5_);}
	.st18{fill:url(#SVGID_6_);}
	.st19{fill:url(#SVGID_7_);}
	.st20{fill:url(#SVGID_8_);}
	.st21{fill:url(#SVGID_9_);}
	.st22{fill:url(#SVGID_10_);}
	.st23{fill:url(#SVGID_11_);}
	.st24{fill:url(#SVGID_12_);}
	.st25{fill:#4D4D4F;}
</style>
<g id="td0lyL_2_">
	<g>
		<path class="st0" d="M46.6,73.4c0.9-0.7,1.9-1.2,2.9-1.8c4.9-2.8,10-5.1,15.4-6.7c5.1-1.5,10.4-2,15.7-1.8c4.5,0.2,9,0.9,13.5,1.4
			c4.5,0.5,9.1,0.9,13.7,0.7c4.8-0.2,9.4-1,13.8-2.9c1.2-0.6,2.4-1.2,3.7-2c-0.7,1.6-1.5,3-2.4,4.4c-3.4,4.7-8,7.4-13.5,8.7
			c-4.5,1-9.1,1-13.7,0.5c-4.4-0.5-8.7-1.5-13-2.3c-6-1-12-1.7-18.1-1.4c-4.5,0.2-8.9,1-13.2,2.1c-1.5,0.4-2.9,0.8-4.4,1.2
			C46.8,73.4,46.7,73.4,46.6,73.4L46.6,73.4z"/>
		<path class="st1" d="M66.3,61.8c-0.4,0.2-0.7,0.2-1,0.3c-4.4,0.9-8.5,2.5-12.6,4.2c-4.1,1.7-8.2,3.5-12.5,4.9
			c-4,1.3-8,2.3-12.2,2.4c-4.8,0.2-9.4-0.8-13.7-2.9C8.7,68,4.2,64,0,59.4c0.2,0.1,0.4,0.2,0.6,0.3c5.6,3,11.6,4.8,18,5.6
			c5.6,0.7,11.2,0.4,16.8-0.2c5.6-0.7,11.2-1.8,16.7-2.6c3.8-0.6,7.6-1.1,11.5-0.9C64.4,61.6,65.3,61.7,66.3,61.8z"/>
		<path class="st2" d="M116.8,46c0.1,0.3-0.1,0.4-0.2,0.5c-1.2,1.1-2.4,2.2-3.6,3.3c-0.2,0.2-0.3,0.2-0.6,0.1
			c-2.5-1.1-5-2.1-7.5-3.2c-0.2-0.1-0.4-0.3-0.5-0.5c-1.8-2.5-3.5-4.9-5.3-7.4c-0.2-0.3-0.2-0.5-0.1-0.8c0.6-1.8,1.2-3.6,1.8-5.4
			c0.1-0.3,0.3-0.4,0.6-0.3c4.6,1.6,9.3,3.2,13.9,4.8c0.4,0.1,0.4,0.3,0.5,0.7c0.3,2.5,0.6,5,1,7.5C116.7,45.6,116.7,45.8,116.8,46z
			"/>
		<path class="st2" d="M70.6,56.7c-1.7-0.1-3.6-0.2-5.4-0.2c-2.2,0-4.3,0-6.5,0c-0.5,0-0.7-0.2-0.7-0.7c-0.2-1.6-0.4-3.2-0.6-4.8
			c0-0.2,0-0.4,0.2-0.5c1.9-1.7,3.8-3.4,5.6-5.1c0.1-0.1,0.3-0.2,0.5-0.2c3.6-0.5,7.2-1,10.7-1.5c0.4-0.1,0.4,0,0.3,0.4
			c-1.2,4.1-2.4,8.3-3.6,12.4C71.1,56.6,71.1,56.8,70.6,56.7z"/>
		<path class="st0" d="M100.6,59.2c-1.9,0-3.7-0.1-5.6-0.2c-0.5,0-0.6-0.2-0.5-0.6c0.5-3.7,1.2-7.5,2-11.2c0.2-0.8,0.4-1.6,0.5-2.4
			c0.1-0.3,0.2-0.4,0.5-0.2c2.1,0.9,4.2,1.8,6.3,2.6c0.2,0.1,0.4,0.3,0.5,0.4c1.7,2.4,3.5,4.9,5.3,7.3c0.2,0.3,0.2,0.4,0.1,0.7
			c-0.4,0.9-0.7,1.8-1,2.6c-0.1,0.3-0.3,0.4-0.6,0.5C105.5,59.1,103.1,59.2,100.6,59.2z"/>
		<path class="st2" d="M94.5,0c-0.2,1.5-0.4,2.9-0.6,4.4c-0.1,0.6-0.2,1.3-0.3,1.9c-0.1,0.8-0.3,1.5-0.8,2.2
			c-2.3,3.7-4.6,7.4-6.9,11c-0.2,0.3-0.3,0.4-0.5,0c-2.1-3.4-4.3-6.7-6.5-10.1c-0.2-0.3-0.2-0.5,0.1-0.7c4.8-3.3,9.9-6.1,15.1-8.6
			C94.3,0,94.4,0,94.5,0z"/>
		<path class="st0" d="M71.8,36.4c-1.8,1.6-3.6,3.2-5.3,4.8c-1,0.9-1.9,1.7-2.9,2.6c-0.3,0.3-0.7,0.5-1.1,0.5
			c-2.3,0.3-4.5,0.6-6.8,1c-0.4,0.1-0.6-0.1-0.8-0.3c-0.8-0.7-0.9-1.4-0.5-2.4c1.4-3.8,2.9-7.6,4.8-11.2c0.2-0.4,0.3-0.5,0.8-0.3
			C63.8,32.9,67.7,34.6,71.8,36.4z"/>
		<path class="st2" d="M36.2,48.9c-0.2,0-0.3-0.1-0.5-0.2c-2.2-1.3-4.3-2.6-6.5-3.8c-0.4-0.3-0.3-0.3,0-0.5
			c5.1-2.9,10.2-5.7,15.3-8.6c0.3-0.2,0.5-0.2,0.7,0.1c0.9,1.1,1.9,2.1,2.8,3.1c0.2,0.2,0.3,0.4,0.1,0.7c-1.3,2.3-2.5,4.6-3.7,6.9
			c-0.1,0.2-0.2,0.4-0.5,0.4c-2.6,0.6-5.1,1.2-7.7,1.8C36.3,48.9,36.3,48.9,36.2,48.9z"/>
		<path class="st1" d="M29,59.6c-1.5,0-3.4-0.1-5.2-0.4c-0.3,0-0.4-0.1-0.3-0.4c0.4-1.9,0.9-3.8,1.3-5.7c0.1-0.3,0.2-0.4,0.5-0.5
			c3.4-0.8,6.8-1.6,10.3-2.5c0.2-0.1,0.4-0.1,0.6,0.1c1.7,1,3.4,2,5.1,3c0.3,0.2,0.2,0.3,0.2,0.5c-0.6,1.4-1.1,2.9-1.7,4.3
			c-0.1,0.3-0.2,0.4-0.5,0.5C36,59.1,32.6,59.6,29,59.6z"/>
		<path class="st0" d="M114.6,19.4c0.1,5.7,0.4,11.3,0.9,16.9c-1.4-0.5-2.8-1-4.1-1.4c-3.2-1.1-6.4-2.3-9.6-3.4
			c-0.5-0.2-0.5-0.3-0.3-0.8c0.3-1.1,1-1.9,2-2.6c3.6-2.8,7.2-5.7,10.8-8.5C114.3,19.6,114.4,19.6,114.6,19.4z"/>
		<path class="st1" d="M34.8,49.3c-2.6,0.6-5,1.2-7.5,1.8c-0.9,0.2-1.9,0.5-2.8,0.7c-0.3,0.1-0.4,0.2-0.5,0.5
			c-0.4,2.1-0.9,4.1-1.3,6.2c-0.1,0.4-0.2,0.5-0.6,0.4c-4-0.8-7.8-2.2-11.6-3.7c0,0,0-0.1-0.1-0.1c0.9-0.5,1.8-1,2.8-1.6
			c4.8-2.7,9.5-5.4,14.3-8c0.2-0.1,0.4-0.3,0.7-0.1C30.4,46.7,32.5,47.9,34.8,49.3z"/>
		<path class="st3" d="M210.4,52.7c0.7-2.2,1.2-4.3,1.6-6.4c0.2-1.2,0.5-2.4,0.6-3.6c0.1-0.3,0.2-0.4,0.5-0.4c0.6,0,1.2,0,1.8,0
			c0.4,0,0.6,0.1,0.5,0.5c-0.5,2.4-1,4.9-1.6,7.3c-0.5,1.6-1,3.2-1.6,4.7c-0.1,0.3-0.3,0.5-0.7,0.4c-0.6,0-1.3,0-1.9,0
			c-0.4,0-0.6-0.1-0.7-0.5c-0.8-2.2-1.5-4.5-2-6.9c0-0.1,0-0.3-0.2-0.4c-0.6,2.5-1.3,4.9-2.1,7.2c-0.2,0.4-0.4,0.6-0.8,0.5
			c-0.6,0-1.2,0-1.8,0c-0.4,0-0.6-0.1-0.8-0.5c-1.2-3-2-6.2-2.7-9.4c-0.2-0.9-0.3-1.8-0.5-2.7c-0.1-0.3,0-0.4,0.3-0.4
			c0.6,0,1.2,0,1.8,0c0.4,0,0.6,0.1,0.6,0.5c0.3,2.3,0.8,4.6,1.4,6.8c0.2,1,0.5,1.9,0.9,3c0.3-1.1,0.6-2,0.9-2.9
			c0.7-2.3,1.2-4.6,1.5-7c0.1-0.5,0.2-0.5,0.7-0.5c0.5,0,0.9,0,1.4,0c0.4,0,0.5,0.1,0.6,0.5c0.5,3.2,1.3,6.3,2.3,9.4
			C210.3,52.3,210.3,52.4,210.4,52.7z"/>
		<path class="st3" d="M227.9,20c0.9,0.8,1.9,1.5,2.8,2.2c1.3,0.9,2.5,1.8,3.7,2.8c2,1.8,1.9,4.5-0.2,6.1c-1.2,0.9-2.4,1.8-3.9,2.1
			c-1,0.2-1.7,0.4-1.8,1.6c-0.1,0.5-0.5,1-0.9,1.3c-1.2,1.1-2.4,2.1-3.8,2.9c-0.6,0.4-1.3,0.5-2,0.6c-1.4,0.1-2.6,0.7-3.9,1.2
			c-0.3,0.1-0.6,0.3-0.9,0.3c0.1-0.2,0.3-0.3,0.5-0.4c1-0.5,2-1,3-1.5c2.5-1.2,4.8-2.8,7-4.6c0.3-0.2,0.8-0.4,0.6-0.9
			c-0.2-0.4-0.6-0.2-1-0.2c-0.6,0-1.2,0-1.8-0.1c-1.2-0.2-1.9-1.1-1.7-2.3c0.1-0.9,0.6-1.7,1.2-2.3c0.7-0.6,1.3-0.6,2-0.1
			c0.8,0.6,1.4,1.3,1.8,2.2c0.1,0.3,0.3,0.4,0.6,0.4c0.8,0,1.5-0.2,2.2-0.5c1.2-0.5,2.3-1.2,3.3-1.9c0.6-0.5,0.6-0.5,0.1-1
			c-1.1-1-2.3-1.9-3.5-2.9c-1.5-1.2-3.1-2.4-4.4-3.7c-0.5-0.5-0.9-1-1.3-1.5c-0.4-0.5-0.2-1.2-0.1-1.8c0-0.1,0.1-0.2,0.1-0.2
			c0-1.3,0.9-1.9,1.9-2.5c3.7-2.3,7.4-4.3,11.5-5.7c0.7-0.2,1.4-0.4,2.1-0.3c1.1,0.1,1.6,0.8,1.2,1.8c-0.2,0.6-0.5,1.2-0.9,1.7
			c-0.8,1.4-1.7,2.8-2.7,4.1c-0.1,0.1-0.2,0.3-0.4,0.4c-0.1-0.3,0.1-0.5,0.2-0.6c0.8-1.3,1.6-2.6,2.3-3.8c0.2-0.3,0.3-0.6,0.5-0.9
			c0.2-0.5,0-0.8-0.6-0.7c-0.5,0.1-1,0.2-1.4,0.4c-3.9,1.6-7.7,3.3-11.4,5.3c-0.5,0.3-0.9,0.6-1.4,0.9c-0.6,0.4-0.6,0.5,0,0.8
			c0.3,0.2,0.7,0.4,1.1,0.5c0.2,0.1,0.4,0.2,0.6,0.4c0.1,0.1,0.3,0.2,0.3,0.4c-0.1,0.2-0.2,0.2-0.4,0.2C228.1,20,228,20,227.9,20z
			 M226.3,31.2c-0.3-0.5-0.6-0.7-1-0.6c-0.1,0-0.3,0.1-0.3,0.3c0,0.2,0.2,0.2,0.3,0.2C225.6,31.1,225.9,31.2,226.3,31.2z"/>
		<path class="st4" d="M165.1,47.5c-0.6,2.4-1.2,4.7-2.1,7c-0.2,0.6-0.5,0.8-1.1,0.8c-0.5-0.1-1.1,0-1.6,0c-0.4,0-0.6-0.1-0.7-0.5
			c-1.2-3.1-2.1-6.3-2.7-9.5c-0.2-0.9-0.3-1.7-0.5-2.6c-0.1-0.4,0.1-0.4,0.4-0.4c0.6,0,1.2,0,1.8,0c0.4,0,0.5,0.1,0.5,0.5
			c0.3,2.3,0.8,4.6,1.4,6.9c0.2,1,0.5,1.9,0.8,2.9c0.3-0.4,0.4-0.8,0.5-1.2c0.9-2.8,1.6-5.6,2-8.4c0.1-0.5,0.3-0.7,0.8-0.7
			c0.4,0.1,0.8,0,1.2,0c0.4,0,0.6,0.1,0.6,0.5c0.5,3.2,1.3,6.4,2.4,9.5c0,0.1,0,0.1,0.1,0.2c0.3-0.5,0.4-1,0.5-1.5
			c0.7-2.7,1.4-5.4,1.7-8.2c0.1-0.5,0.2-0.7,0.8-0.7c0.5,0.1,1.1,0,1.6,0c0.3,0,0.4,0.1,0.4,0.4c-0.7,4.1-1.7,8.2-3.3,12.1
			c-0.1,0.3-0.3,0.4-0.6,0.4c-0.6,0-1.3,0-1.9,0c-0.4,0-0.6-0.1-0.7-0.5c-0.8-2.2-1.5-4.5-2-6.9C165.2,47.8,165.2,47.6,165.1,47.5z"
			/>
		<path class="st5" d="M173.6,28.3c-1.5,2.6-3.8,4.2-6.3,5.6c-0.7,0.4-1.4,0.6-2.2,0.7c-1.4,0.2-2.3-0.4-2.6-1.7
			c-0.3-1.4-0.2-2.7,0.3-4c0.4-1.2,1-2.4,1.7-3.5c0.1-0.2,0.3-0.5,0.6-0.3c0.3,0.2,0.1,0.5,0,0.7c-0.5,1.1-1.1,2.1-1.4,3.3
			c-0.2,0.5-0.3,1.1-0.4,1.7c-0.1,1.3,0.8,2,2,1.6c2-0.5,3.7-1.5,5.2-2.8c1-0.8,1.9-1.7,2.5-2.8c0.1-0.2,0.2-0.5,0.1-0.7
			c-0.3-1.9-1-3.7-1.7-5.5c-0.3-0.9-0.4-1.8-0.2-2.8c0-0.2,0.1-0.4,0.3-0.5c0.2,0,0.3,0.2,0.4,0.3c0.5,0.9,0.8,2,1.2,3
			c0.8,2.1,1.2,4.3,1.6,6.4c0.2,1.2,0.6,2.3,1.4,3.2c0.6,0.7,1.7,1,2.5,0.6c0.2-0.1,0.1-0.2,0.1-0.3c-0.1-0.4-0.3-0.7-0.4-1.1
			c-0.9-2.2,1.2-5.2,4-4.7c2.4,0.5,4.7,1.2,7.1,1.7c0.7,0.1,1.3,0.2,2,0.3c0.5,0.1,0.6,0.3,0.4,0.7c0,0.1-0.1,0.3-0.1,0.4
			c-0.2,0.6-0.4,1-1.1,1.1c-1.1,0.1-2.1,0.7-3.2,1.2c-2.1,1-4.2,2-6.5,2.5c-0.2,0.1-0.3,0.1-0.3,0.4c0,0.1,0,0.2-0.1,0.3
			c-0.1,0.3-0.1,0.7-0.5,0.7c-0.4,0-0.3-0.4-0.3-0.7c0-0.3-0.1-0.4-0.4-0.3c-0.3,0.1-0.5,0.1-0.8,0.1c-1.9,0.2-3.1-0.5-4-2.3
			C174.2,30.2,173.9,29.3,173.6,28.3z M187.2,28.4c-1-0.3-1.9-0.5-2.8-0.8c-1.3-0.4-2.6-0.6-3.9-0.5c-1,0.1-1.5,1-1.1,1.9
			c0.2,0.5,0.5,0.9,0.6,1.4c0.1,0.4,0.3,0.4,0.7,0.4c1-0.2,2.1-0.5,3.1-0.8C184.9,29.5,186.1,29,187.2,28.4z"/>
		<path class="st6" d="M137,47c0,2.7,0,5.2,0,7.7c0,0.4-0.1,0.6-0.5,0.5c-0.5,0-1,0-1.5,0c-0.4,0-0.4-0.1-0.4-0.5c0-4,0-8,0-12.1
			c0-0.3,0.1-0.5,0.4-0.4c0,0,0,0,0.1,0c0.7,0,1.5-0.2,2,0.1c0.5,0.3,0.7,1.1,1,1.7c1.3,2.4,2.8,4.7,4.4,7c0.1,0.1,0.1,0.2,0.2,0.2
			c0-2.8,0-5.6,0-8.4c0-0.4,0.1-0.6,0.6-0.6c0.5,0,0.9,0,1.4,0c0.4,0,0.5,0.1,0.5,0.5c0,3.3,0,6.6,0,9.9c0,0.7,0,1.4,0,2.1
			c0,0.3-0.1,0.5-0.4,0.4c0,0,0,0-0.1,0c-2.1,0-2.1,0-3.3-1.7c-1.5-2-2.9-4.1-4.1-6.3C137.1,47.2,137.1,47.2,137,47z"/>
		<path class="st5" d="M157.7,25.5c0.5,0.5,0.9,1.1,1.3,1.6c1.1,1.2,1.6,2.6,0.8,4.2c-0.8,1.6-2.6,2.7-4.3,2.6
			c-1.3-0.1-2.2-0.8-2.7-2c-0.4-0.9-0.7-1.9-1-2.8c-1.6,2.8-4.1,4.6-7,5.9c-0.4,0.2-0.9,0.3-1.4,0.4c-1.7,0.3-2.6-0.5-2.9-2.2
			c-0.3-2.3,0.5-4.3,1.6-6.3c0.2-0.3,0.4-0.6,0.6-0.9c0.1-0.1,0.2-0.3,0.4-0.2c0.2,0.1,0.2,0.3,0.1,0.5c-0.1,0.4-0.3,0.7-0.5,1
			c-0.6,1.2-1.2,2.5-1.4,3.9c-0.2,1.4,0.7,2.2,2,1.8c3-0.8,5.4-2.6,7.4-5c0.7-0.9,0.5-1.7,0.2-2.5c-0.6-1.7-1.2-3.4-1.7-5.2
			c-0.2-0.7,0.1-1.4,0.2-2.1c0-0.3,0.3-0.2,0.5,0c0.2,0.2,0.3,0.4,0.4,0.7c1.1,2.6,2,5.3,2.5,8.2c0.2,1.1,0.4,2.3,1,3.3
			c0.9,1.4,1.6,1.6,2.9,1.2c0.7-0.2,1.4-0.6,2-1c0.3-0.2,0.4-0.4,0.1-0.7c-0.3-0.4-0.6-0.8-0.9-1.2c-0.8-0.9-1.4-2-2.1-3
			c-0.5-0.8-0.2-1.4-0.2-2.1c0-0.4,0.2-0.4,0.5-0.2c0.5,0.4,1.1,0.8,1.6,1.2c0.2,0.2,0.5,0.3,0.4,0.6
			C158.4,25.5,158,25.3,157.7,25.5z"/>
		<path class="st3" d="M218.9,24.8c0.3,0.5,0.7,1,1.1,1.4c2.1,2.4,1.6,4.8-1.1,6.4c-0.5,0.3-1,0.5-1.6,0.6c-1.8,0.3-3.1-0.7-3.2-2.6
			c0-0.2,0-0.4,0-0.6c-0.3-0.1-0.4,0.1-0.6,0.2c-3.1,1.5-6.4,2.7-9.9,3.1c-1.9,0.2-3.9,0.2-5.7-0.5c-2.4-0.9-3.5-2.8-2.9-5.4
			c0.2-0.7,0.4-1.4,0.7-2c0.1-0.2,0.2-0.5,0.5-0.3c0.3,0.1,0.1,0.4,0,0.6c-1,2.1-0.3,3.9,1.9,4.8c1.8,0.7,3.7,0.7,5.6,0.6
			c3.3-0.3,6.4-1.5,9.5-2.7c0.4-0.2,0.8-0.3,1.2-0.5c0.6-0.2,0.7-0.1,0.7,0.5c0,0.2,0,0.3,0,0.5c-0.1,1.2,1,2.2,2.2,2.1
			c1.1-0.1,2-0.6,2.9-1.2c0.3-0.2,0.3-0.4,0.1-0.6c-0.4-0.4-0.7-0.9-1.1-1.3c-0.8-0.9-1.4-1.9-2-2.9c-0.4-0.7-0.3-1.3-0.2-2
			c0-0.4,0.2-0.6,0.6-0.3c0.5,0.4,1,0.7,1.5,1.1c0.2,0.2,0.6,0.3,0.5,0.7C219.5,24.9,219.1,24.6,218.9,24.8z"/>
		<path class="st7" d="M185.8,55.3c-1,0-1.9,0-2.9,0c-0.3,0-0.4-0.3-0.5-0.4c-1-1.4-1.9-2.9-2.8-4.3c-0.2-0.3-0.3-0.3-0.7-0.2
			c-0.9,0.4-1.1,0.9-1.1,1.8c0.1,0.9,0,1.7,0,2.6c0,0.3-0.1,0.5-0.4,0.5c-0.6,0-1.2,0-1.8,0c-0.3,0-0.4-0.1-0.4-0.4
			c0-4.1,0-8.1,0-12.2c0-0.4,0.1-0.4,0.4-0.4c0.6,0,1.2,0,1.8,0c0.4,0,0.4,0.1,0.4,0.5c0,1.6,0,3.3,0,4.9c0,0.1-0.1,0.3,0.1,0.4
			c0.2,0.1,0.3-0.1,0.4-0.2c1.9-1.3,3.3-3,3.8-5.2c0.1-0.3,0.2-0.4,0.5-0.4c0.6,0,1.2,0,1.8,0c0.4,0,0.4,0.1,0.3,0.5
			c-0.6,2.1-1.6,4-3.2,5.5c-0.3,0.3-0.3,0.5-0.1,0.9c1.3,1.9,2.5,3.7,3.8,5.6C185.6,54.9,185.7,55,185.8,55.3z"/>
		<path class="st3" d="M224.7,55.3c-1.4,0-1.4,0-1.7-1.3c-0.1-0.5-0.1-1.1-0.5-1.4c-0.4-0.3-1-0.1-1.5-0.1c-0.9,0-1.7,0-2.6,0
			c-0.4,0-0.6,0.1-0.7,0.5c-0.1,0.6-0.4,1.2-0.5,1.9c-0.1,0.3-0.2,0.5-0.6,0.5c-0.6,0-1.3,0-1.9,0c-0.3,0-0.4,0-0.3-0.4
			c1.2-4.1,2.4-8.1,4.2-12c0.2-0.4,0.4-0.6,0.8-0.5c0.5,0.1,1,0.1,1.5,0c0.6-0.1,0.9,0.2,1.1,0.7c1.7,3.8,2.9,7.8,4.1,11.8
			c0.1,0.3,0.1,0.5-0.3,0.5C225.3,55.2,225,55.3,224.7,55.3z M220.2,45.2c-0.7,1.6-1.2,3.1-1.6,4.7c-0.1,0.2,0,0.3,0.2,0.3
			c0.9,0,1.9,0,2.8,0c0.2,0,0.3-0.1,0.2-0.3C221.3,48.3,220.9,46.8,220.2,45.2z"/>
		<path class="st0" d="M186.3,46.8c0-1.3,0-2.7,0-4c0-0.4,0.1-0.5,0.5-0.5c0.6,0,1.1,0,1.7,0c0.4,0,0.5,0.1,0.5,0.5
			c0,2.3,0,4.5,0,6.8c0,0.6,0,1.2,0.2,1.8c0.3,1.1,1.1,1.7,2.3,1.7c1.2,0,2-0.6,2.3-1.7c0.1-0.5,0.2-1,0.2-1.5c0-2.3,0-4.7,0-7
			c0-0.5,0.2-0.7,0.7-0.6c0.5,0,1.1,0,1.6,0c0.3,0,0.4,0.1,0.4,0.4c0,2.7,0.1,5.5-0.1,8.2c-0.2,2.8-2,4.5-4.8,4.5
			c-1.5,0-2.8-0.2-4-1.2c-1.1-1-1.5-2.3-1.5-3.7C186.3,49.3,186.3,48,186.3,46.8C186.3,46.8,186.3,46.8,186.3,46.8z"/>
		<path class="st5" d="M147,48.7c0-2,0-3.9,0-5.9c0-0.4,0.1-0.5,0.5-0.5c2.4,0,4.7,0,7.1,0c0.4,0,0.5,0.1,0.5,0.5
			c-0.1,0.6,0.2,1.3-0.1,1.7c-0.3,0.3-1.1,0.1-1.6,0.1c-1.1,0-2.1,0-3.2,0c-0.4,0-0.5,0.1-0.5,0.5c0,0.7,0,1.4,0,2
			c0,0.3,0.1,0.5,0.4,0.5c1.2,0,2.5,0,3.7,0c0.4,0,0.6,0.1,0.5,0.5c0,0.4,0,0.9,0,1.3c0,0.4-0.2,0.5-0.5,0.5c-1.2,0-2.4,0-3.6,0
			c-0.3,0-0.5,0.1-0.5,0.5c0,0.7,0,1.5,0,2.2c0,0.4,0.1,0.5,0.5,0.4c1.5,0,2.9,0,4.4,0c0.5,0,0.7,0.2,0.6,0.6c0,0.4,0,0.9,0,1.3
			c0,0.3-0.1,0.4-0.4,0.4c-2.4,0-4.9,0-7.3,0c-0.4,0-0.4-0.3-0.4-0.6C147,52.7,147,50.7,147,48.7z"/>
		<path class="st7" d="M114.8,8.4c-0.2,3.2-0.2,6.4-0.2,9.5c0,0.3-0.1,0.4-0.3,0.6c-3.8,3-7.5,5.9-11.3,8.9
			C103.4,24.7,111.9,10.8,114.8,8.4z"/>
		<path class="st7" d="M105.9,48.1c2,0.8,3.9,1.6,5.9,2.4c0.9,0.4,1.5,0.4,2.2-0.4c0.9-1,2-1.8,3-2.8c0.2,1,0.3,2,0.5,2.9
			c0.3,1.6,0.6,3.2,0.9,4.8c0.1,0.3,0.1,0.5-0.3,0.6c-2.7,1.3-5.5,2.2-8.4,2.7c-0.1,0-0.1,0-0.3,0c0.4-1,0.7-1.9,1.1-2.9
			c0.1-0.3,0.1-0.6-0.1-0.9c-1.5-2-2.9-4.1-4.4-6.1C106,48.5,105.8,48.4,105.9,48.1L105.9,48.1z"/>
		<path class="st6" d="M61.8,45.4c-1.7,1.6-3.3,3-4.9,4.5c-0.3,0.3-0.4,0.5-0.4,0.9c0.2,1.7,0.4,3.5,0.6,5.2c0.1,0.4,0,0.5-0.4,0.5
			c-2.1,0-4.2,0.2-6.2,0.4c-0.5,0-0.3-0.2-0.3-0.4c0.5-1.8,0.9-3.5,1.4-5.3c0.6-1.9,1.2-3.8,1.7-5.7c0.1-0.4,0.3-0.6,0.5-0.1
			c0.6,1,1.4,1,2.4,0.8c1.7-0.3,3.4-0.5,5.1-0.8C61.5,45.4,61.6,45.4,61.8,45.4z"/>
		<path class="st7" d="M72.8,28.2c-4.3,0.6-8.6,1.2-12.8,1.8c-0.1-0.1,0-0.2,0-0.3c1.9-3.5,4.1-6.7,6.7-9.7c0.3-0.3,0.4-0.4,0.7,0
			C69.1,22.7,70.9,25.4,72.8,28.2z"/>
		<path class="st6" d="M77.9,20.7c0,0.4,0,0.8,0,1.2c0,0.4-0.1,0.4-0.4,0.3c-1.1-0.5-2.3-1-3.4-1.5c-1.8-0.8-3.5-1.6-5.3-2.4
			c-0.3-0.1-0.4-0.2-0.1-0.5c2.6-2.8,5.3-5.3,8.4-7.5c0.1-0.1,0.3-0.3,0.5-0.2c0.2,0.1,0.1,0.3,0.1,0.5c0.1,2.7,0.1,5.4,0.2,8.1
			C77.8,19.3,77.8,20,77.9,20.7C77.8,20.7,77.9,20.7,77.9,20.7z"/>
		<path class="st6" d="M72,56.8c2.3-2.2,4.6-4.2,6.9-6.3c0.8-0.7,1.6-1.4,2.3-2.2c0.3-0.3,0.4-0.4,0.6,0.1c1,3,1.9,6,2.9,9
			c0.1,0.4,0.1,0.5-0.4,0.5c-3.4-0.4-6.9-0.7-10.3-1C73.4,56.9,72.8,56.9,72,56.8z"/>
		<path class="st3" d="M237.5,49.9c0,1.6,0,3.2,0,4.8c0,0.4-0.1,0.5-0.5,0.5c-0.6,0-1.1,0-1.7,0c-0.4,0-0.5-0.1-0.5-0.5
			c0-3.2,0-6.4,0-9.5c0-0.6-0.2-0.7-0.7-0.6c-0.8,0-1.6,0-2.4,0c-0.3,0-0.4-0.1-0.4-0.4c0-0.5,0-1,0-1.5c0-0.3,0.1-0.4,0.4-0.4
			c2.9,0,5.9,0,8.8,0c0.3,0,0.4,0.1,0.4,0.4c0,0.5,0,1,0,1.5c0,0.3-0.1,0.4-0.4,0.4c-0.9,0-1.7,0-2.6,0c-0.4,0-0.5,0.1-0.5,0.5
			C237.5,46.7,237.5,48.3,237.5,49.9z"/>
		<path class="st8" d="M78.6,10.6c1.5,2.3,2.9,4.5,4.4,6.8c0.6,1,1.3,2,1.9,3c0.2,0.3,0.2,0.4,0,0.7c-0.7,1.1-1.4,2.1-2,3.2
			c-0.2,0.3-0.3,0.3-0.6,0.2c-1-0.5-2.1-1-3.1-1.5c-0.3-0.1-0.4-0.3-0.4-0.5c-0.1-4-0.2-7.9-0.3-11.9C78.6,10.6,78.6,10.6,78.6,10.6
			z"/>
		<path class="st9" d="M61.2,30.8c4-0.6,7.8-1.1,11.7-1.6c0.3,0,0.5,0,0.7,0.3c0.6,1,1.3,1.9,1.9,2.9c0.2,0.3,0.2,0.4-0.1,0.6
			c-0.9,0.8-1.8,1.6-2.6,2.4c-0.3,0.2-0.5,0.3-0.8,0.1c-3.4-1.5-6.9-3-10.3-4.5C61.7,30.9,61.5,30.9,61.2,30.8z"/>
		<path class="st10" d="M85.8,57.7c-0.5-1.5-1-3-1.5-4.5c-0.6-1.8-1.2-3.7-1.8-5.5c-0.1-0.3,0-0.5,0.2-0.7c1-0.9,1.9-1.7,2.8-2.6
			c0.2-0.2,0.4-0.2,0.6,0c1,1,2,1.9,3,2.9c0.2,0.2,0.2,0.3,0.2,0.5c-1.1,3.2-2.2,6.5-3.4,9.7C85.9,57.6,85.8,57.6,85.8,57.7z"/>
		<path class="st10" d="M72.6,55c0.9-3.1,1.8-6.3,2.7-9.4c0.2-0.6,0.4-1.2,0.5-1.9c0.1-0.2,0.2-0.4,0.5-0.4c1.1-0.1,2.2-0.3,3.3-0.5
			c0.3,0,0.4,0,0.4,0.3c0.4,1.2,0.8,2.4,1.2,3.6c0.1,0.3,0,0.4-0.2,0.6c-2.5,2.3-5.1,4.6-7.6,7C73.2,54.5,72.9,54.8,72.6,55
			C72.6,55,72.6,55,72.6,55z"/>
		<path class="st8" d="M93.1,9.9c-0.2,1.7-0.4,3.4-0.6,5.1c-0.2,2.5-0.5,4.9-0.7,7.4c0,0.3-0.1,0.4-0.4,0.6
			c-0.9,0.5-1.7,0.9-2.5,1.4c-0.3,0.2-0.4,0.1-0.5-0.1c-0.7-1.1-1.4-2.1-2.1-3.2c-0.1-0.2-0.2-0.3,0-0.5c2.2-3.5,4.4-7.1,6.6-10.6
			C93.1,9.8,93.1,9.9,93.1,9.9z"/>
		<path class="st8" d="M67.8,18.9c1,0.4,2,0.9,3,1.3c2.2,1,4.5,2,6.7,3c0.3,0.1,0.5,0.2,0.5,0.6c0,1.1,0,2.2,0.1,3.3
			c0,0.3,0,0.4-0.4,0.5c-1.2,0.1-2.3,0.3-3.5,0.5c-0.2,0-0.4,0-0.5-0.2c-2-2.9-3.9-5.9-5.9-8.8C67.7,19,67.8,19,67.8,18.9z"/>
		<path class="st10" d="M64.9,44c0-0.2,0.2-0.3,0.3-0.4c2.4-2.2,4.8-4.3,7.2-6.5c0.3-0.3,0.5-0.3,0.9-0.1c0.9,0.4,1.9,0.8,2.8,1.2
			c0.3,0.1,0.4,0.2,0.3,0.6c-0.4,1.1-0.7,2.2-1,3.3c-0.1,0.3-0.2,0.4-0.5,0.4C71.5,43,68.2,43.5,64.9,44z"/>
		<path class="st11" d="M227.3,48.8c0-2,0-4,0-6c0-0.4,0.1-0.5,0.5-0.5c0.6,0,1.2,0,1.8,0c0.3,0,0.4,0.1,0.4,0.4c0,4.1,0,8.1,0,12.2
			c0,0.3-0.1,0.4-0.4,0.4c-0.6,0-1.1,0-1.7,0c-0.4,0-0.6-0.1-0.6-0.6C227.3,52.7,227.3,50.8,227.3,48.8z"/>
		<path class="st5" d="M136.4,25.2c0.4,0.4,0.7,0.7,1.1,1c0.2,0.2,0.4,0.2,0.5-0.1c0.7-1,1.5-1.9,2.1-3c0.1-0.1,0.1-0.2,0.2-0.3
			c0.1-0.1,0.2-0.3,0.4-0.2c0.2,0.1,0.2,0.2,0.2,0.4c0,0.5-0.1,1-0.4,1.5c-0.5,0.8-1.1,1.6-1.6,2.3c-0.2,0.3-0.3,0.5,0,0.7
			c1.6,1.3,1.3,4.5-0.7,5.6c-0.4,0.2-0.8,0.5-1.2,0.7c-0.7,0.3-1.4-0.1-1.6-0.8c-0.1-0.4-0.1-0.8-0.1-1.2c0.2-1.3,0.5-2.5,1.2-3.6
			c0.2-0.3,0.1-0.4-0.1-0.6c-0.8-0.7-1.3-1.6-2-2.4c-0.2-0.3-0.1-0.7-0.1-1c0-1.2,0-1.1,1-0.6c0.4,0.2,0.8,0.4,1.2,0.7
			c0.2,0.1,0.6,0.2,0.5,0.5C137.1,25.3,136.7,25.1,136.4,25.2z M136.9,31.8c0.8-0.2,1.5-0.7,2.2-1.3c0.2-0.1,0-0.3-0.1-0.5
			c-0.3-0.4-0.7-0.8-1.1-1.2c-0.1-0.1-0.2-0.2-0.4,0c-0.5,0.8-0.9,1.5-1.2,2.4C136.2,31.6,136.4,31.8,136.9,31.8z"/>
		<path class="st3" d="M90.1,48.5c0.3,3.4,0.6,6.8,1.4,10.1c-1.3-0.1-2.5-0.2-3.7-0.3c-1.2-0.1-1.2-0.1-0.8-1.3
			c0.9-2.7,1.8-5.4,2.8-8.1C89.9,48.8,89.9,48.6,90.1,48.5z"/>
		<path class="st3" d="M53.7,30.7c-1.6,2.6-3.2,5.1-4.8,7.8c-1-1.1-1.9-2.1-2.9-3.2c-0.2-0.3,0-0.3,0.1-0.4
			C48.7,33.5,51.2,32.1,53.7,30.7z"/>
		<path class="st5" d="M37.2,49.6c2.3-0.6,4.4-1.1,6.6-1.6c-0.6,1.5-1.2,2.8-1.8,4.2c-0.1,0.2-0.2,0.2-0.3,0.1
			C40.3,51.5,38.8,50.6,37.2,49.6z"/>
		<path class="st5" d="M98.4,39.5c1.5,2.1,3,4.2,4.6,6.4c-1.3-0.5-2.4-1-3.5-1.5c-0.6-0.3-1.2-0.5-1.8-0.8c-0.2-0.1-0.4-0.2-0.3-0.5
			C97.8,42,98.1,40.8,98.4,39.5z"/>
		<path class="st11" d="M202.5,23.4c0.6,0.7,1.4,0.9,2.1,1.6c0.2-0.4,0.3-0.8,0.5-1.1c0.1-0.3,0.3-0.5,0.7-0.3
			c0.4,0.2,0.9,0.4,1.3,0.7c0.3,0.2,0.4,0.4,0.3,0.8c-0.4,1.6-0.6,1.7-1.9,0.9c-0.3-0.2-0.5-0.3-0.8-0.5c-0.1,0.4-0.2,0.8-0.3,1.1
			c-0.2,0.4-0.4,0.5-0.8,0.3c0,0-0.1,0-0.1-0.1C201.2,25.4,201.5,25.8,202.5,23.4z"/>
		<path class="st3" d="M217.1,34.1c0.5,0.6,1.2,0.9,1.7,1.3c0.1-0.3,0.3-0.7,0.4-1c0.1-0.3,0.3-0.3,0.5-0.2c0.2,0.1,0.3,0.2,0.5,0.3
			c1.2,0.7,1.4,1.4,0.5,2.5c-0.2,0.2-0.3,0.2-0.5,0.1c-0.5-0.3-1-0.6-1.5-0.9c0,0,0,0-0.1,0.1c-0.2,0.4-0.2,0.9-0.7,1
			c-0.2,0.1-1.5-0.8-1.6-1c-0.1-0.2-0.1-0.4,0-0.5C216.6,35.2,216.8,34.7,217.1,34.1z"/>
		<path class="st5" d="M158.4,37.1c-0.5,1.4-0.6,1.5-1.8,0.7c-0.7-0.5-0.8-0.6-0.4-1.4c0.2-0.4,0.2-0.9,0.5-1.1
			c0.3-0.2,0.6,0.4,0.9,0.6c0.3,0.1,0.5,0.5,0.8,0.4c0.3,0,0.2-0.5,0.4-0.8c0.2-0.3,0.4-0.4,0.7-0.2c0.1,0.1,0.3,0.1,0.4,0.2
			c1.2,0.7,1.3,1.5,0.5,2.6c-0.2,0.2-0.3,0.2-0.5,0.1C159.4,37.8,158.9,37.5,158.4,37.1z"/>
		<path class="st5" d="M137,18.4c0,0.2,0,0.4,0,0.6c-0.3,1.2-0.6,1.3-1.5,0.7c-1.8-1.1-1.5-0.8-0.8-2.5c0.2-0.5,0.3-0.5,0.7-0.2
			c0.4,0.5,1.1,0.6,1.5,1.1C136.8,18.4,137.1,18.3,137,18.4z"/>
		<path class="st5" d="M137,18.4c0-0.1-0.2-0.1-0.1-0.2c0.4-0.3,0.4-0.7,0.6-1.1c0.2-0.4,0.4-0.7,0.9-0.4c0.2,0.1,0.4,0.2,0.6,0.3
			c0.3,0.2,0.8,0.3,0.8,0.7c0,0.6-0.2,1.2-0.6,1.7c-0.1,0.2-0.3,0-0.5,0C138.2,19.1,137.6,18.8,137,18.4z"/>
		<path class="st5" d="M184,36.5c0.1-0.4,0.2-0.9,0.4-1.4c0.1-0.2,0.2-0.3,0.4-0.2c0.2,0.1,0.3,0.2,0.5,0.2c1.3,0.6,1.4,1,0.9,2.3
			c-0.1,0.4-0.4,0.5-0.7,0.3c-0.4-0.2-0.8-0.4-1.2-0.6C184.1,37,184,36.8,184,36.5z"/>
		<path class="st7" d="M105.9,48.1C105.8,48.1,105.8,48.1,105.9,48.1C105.8,48.1,105.8,48.1,105.9,48.1
			C105.8,48.1,105.8,48.1,105.9,48.1L105.9,48.1z"/>
		<path class="st0" d="M46.6,73.4C46.6,73.4,46.6,73.4,46.6,73.4C46.5,73.4,46.6,73.4,46.6,73.4L46.6,73.4z"/>
	</g>
</g>
</svg>
